<?xml version="1.0" standalone="no"?>
<!DOCTYPE svg PUBLIC "-//W3C//DTD SVG 20010904//EN"
 "http://www.w3.org/TR/2001/REC-SVG-20010904/DTD/svg10.dtd">
<svg version="1.0" xmlns="http://www.w3.org/2000/svg"
 width="288.000000pt" height="288.000000pt" viewBox="0 0 288.000000 288.000000"
 preserveAspectRatio="xMidYMid meet">

<g transform="translate(0.000000,288.000000) scale(0.100000,-0.100000)"
fill="#000000" stroke="none">
<path d="M0 1440 l0 -1440 1440 0 1440 0 0 1440 0 1440 -1440 0 -1440 0 0
-1440z m1412 -162 c-18 -18 -522 -315 -527 -310 -3 3 -5 94 -5 203 l0 197 71
41 c39 23 73 41 75 41 2 0 4 -29 4 -64 0 -35 3 -84 6 -108 l6 -46 107 65 c58
36 110 68 114 72 4 4 6 69 5 144 l-3 137 -90 -55 c-49 -30 -93 -55 -97 -55 -3
0 -5 39 -5 87 l2 87 170 102 170 102 3 -316 c1 -174 -1 -319 -6 -324z m431
417 c82 -48 151 -93 153 -99 2 -6 3 -100 2 -207 l-3 -196 -189 113 c-104 63
-190 114 -192 114 -2 0 -4 -49 -4 -110 0 -60 -3 -110 -6 -110 -3 0 -34 17 -69
38 l-65 37 0 322 0 322 113 -68 c61 -37 179 -107 260 -156z"/>
<path d="M1619 1647 c-15 -35 -3 -48 101 -109 41 -24 87 -52 103 -62 l27 -18
0 26 c0 19 -10 32 -37 49 -54 35 -193 116 -194 114z"/>
</g>
</svg>
